# xmcd
#
# Track frame offsets: 
#        150
#        11467
#        24816
#        38382
#        51363
#        64254
#        75907
#        86709
#        98428
#        108737
#        120455
#        132123
#        144980
#        156957
#        166922
#
# Disc length: 2395 seconds
#
# Revision: 5
# Processed by: cddbd v1.5.2PL0 Copyright (c) Steve Scherf et al.
# Submitted via: ExactAudioCopy v1.0b3
#
DISCID=aa09590f
DTITLE=Robert Johnson - Treasures From The Blues, Disc 3
DYEAR=2008
DGENRE=Blues
TTITLE0=Cross road blues
TTITLE1=I believe I'll dust my broom
TTITLE2=Terraplane blues
TTITLE3=32-20 blues
TTITLE4=Come on in my kitchen
TTITLE5=Dead shrimp blues
TTITLE6=From four till late
TTITLE7=Hellhound on my trail
TTITLE8=Honeymoon blues
TTITLE9=I'm a steady rollin' man
TTITLE10=If I had possession over Judgement Day
TTITLE11=Kindhearted woman blues
TTITLE12=Last fair deal gone down
TTITLE13=Little queen of spades
TTITLE14=Rambling on my mind
EXTD=YEAR: 2007
EXTT0=
EXTT1=
EXTT2=
EXTT3=
EXTT4=
EXTT5=
EXTT6=
EXTT7=
EXTT8=
EXTT9=
EXTT10=
EXTT11=
EXTT12=
EXTT13=
EXTT14=
PLAYORDER=
